<svg width="74" height="60" viewBox="0 0 74 60" fill="none" xmlns="http://www.w3.org/2000/svg">
<path d="M34.3976 59.9107C51.1198 59.9107 64.6758 46.5499 64.6758 30.0684C64.6758 13.587 51.1198 0.226196 34.3976 0.226196C17.6753 0.226196 4.11929 13.587 4.11929 30.0684C4.11929 46.5499 17.6753 59.9107 34.3976 59.9107Z" fill="#0B3D91"/>
<path d="M32.6098 6.29232C32.7973 6.29232 32.9493 6.14264 32.9493 5.958C32.9493 5.77336 32.7973 5.62367 32.6098 5.62367C32.4224 5.62367 32.2704 5.77336 32.2704 5.958C32.2704 6.14264 32.4224 6.29232 32.6098 6.29232Z" fill="white"/>
<path d="M36.0949 6.7384C36.2824 6.7384 36.4344 6.58872 36.4344 6.40407C36.4344 6.21943 36.2824 6.06975 36.0949 6.06975C35.9075 6.06975 35.7555 6.21943 35.7555 6.40407C35.7555 6.58872 35.9075 6.7384 36.0949 6.7384Z" fill="white"/>
<path d="M40.6661 12.805C40.8536 12.805 41.0055 12.6553 41.0055 12.4706C41.0055 12.286 40.8536 12.1363 40.6661 12.1363C40.4786 12.1363 40.3267 12.286 40.3267 12.4706C40.3267 12.6553 40.4786 12.805 40.6661 12.805Z" fill="white"/>
<path d="M15.5926 44.0301C15.7801 44.0301 15.9321 43.8804 15.9321 43.6957C15.9321 43.5111 15.7801 43.3614 15.5926 43.3614C15.4052 43.3614 15.2532 43.5111 15.2532 43.6957C15.2532 43.8804 15.4052 44.0301 15.5926 44.0301Z" fill="white"/>
<path d="M16.4751 46.7065C16.6626 46.7065 16.8146 46.5568 16.8146 46.3722C16.8146 46.1875 16.6626 46.0378 16.4751 46.0378C16.2877 46.0378 16.1357 46.1875 16.1357 46.3722C16.1357 46.5568 16.2877 46.7065 16.4751 46.7065Z" fill="white"/>
<path d="M12.266 44.3479C12.4064 44.3479 12.5202 44.2357 12.5202 44.0974C12.5202 43.959 12.4064 43.8469 12.266 43.8469C12.1256 43.8469 12.0118 43.959 12.0118 44.0974C12.0118 44.2357 12.1256 44.3479 12.266 44.3479Z" fill="white"/>
<path d="M26.07 49.6063C26.2108 49.6063 26.325 49.4939 26.325 49.3551C26.325 49.2163 26.2108 49.1038 26.07 49.1038C25.9292 49.1038 25.8151 49.2163 25.8151 49.3551C25.8151 49.4939 25.9292 49.6063 26.07 49.6063Z" fill="white"/>
<path d="M47.7204 45.1731C47.8608 45.1731 47.9746 45.061 47.9746 44.9226C47.9746 44.7843 47.8608 44.6721 47.7204 44.6721C47.58 44.6721 47.4662 44.7843 47.4662 44.9226C47.4662 45.061 47.58 45.1731 47.7204 45.1731Z" fill="white"/>
<path d="M54.0122 38.4382C54.153 38.4382 54.2672 38.3257 54.2672 38.1869C54.2672 38.0482 54.153 37.9357 54.0122 37.9357C53.8714 37.9357 53.7572 38.0482 53.7572 38.1869C53.7572 38.3257 53.8714 38.4382 54.0122 38.4382Z" fill="white"/>
<path d="M23.1734 14.6781C23.3138 14.6781 23.4276 14.566 23.4276 14.4276C23.4276 14.2893 23.3138 14.1771 23.1734 14.1771C23.033 14.1771 22.9192 14.2893 22.9192 14.4276C22.9192 14.566 23.033 14.6781 23.1734 14.6781Z" fill="white"/>
<path d="M30.098 9.66575C30.2384 9.66575 30.3522 9.55359 30.3522 9.41524C30.3522 9.27689 30.2384 9.16473 30.098 9.16473C29.9576 9.16473 29.8438 9.27689 29.8438 9.41524C29.8438 9.55359 29.9576 9.66575 30.098 9.66575Z" fill="white"/>
<path d="M29.346 9.17507C29.4864 9.17507 29.6002 9.06291 29.6002 8.92456C29.6002 8.78621 29.4864 8.67406 29.346 8.67406C29.2056 8.67406 29.0918 8.78621 29.0918 8.92456C29.0918 9.06291 29.2056 9.17507 29.346 9.17507Z" fill="white"/>
<path d="M28.667 8.68441C28.8074 8.68441 28.9213 8.57225 28.9213 8.4339C28.9213 8.29555 28.8074 8.1834 28.667 8.1834C28.5267 8.1834 28.4128 8.29555 28.4128 8.4339C28.4128 8.57225 28.5267 8.68441 28.667 8.68441Z" fill="white"/>
<path d="M24.2596 15.9725C24.4 15.9725 24.5138 15.8603 24.5138 15.722C24.5138 15.5836 24.4 15.4715 24.2596 15.4715C24.1192 15.4715 24.0054 15.5836 24.0054 15.722C24.0054 15.8603 24.1192 15.9725 24.2596 15.9725Z" fill="white"/>
<path d="M34.4597 2.93006C34.6001 2.93006 34.7139 2.8179 34.7139 2.67955C34.7139 2.5412 34.6001 2.42905 34.4597 2.42905C34.3193 2.42905 34.2055 2.5412 34.2055 2.67955C34.2055 2.8179 34.3193 2.93006 34.4597 2.93006Z" fill="white"/>
<path d="M36.1349 10.1564C36.2753 10.1564 36.3891 10.0443 36.3891 9.90593C36.3891 9.76758 36.2753 9.65543 36.1349 9.65543C35.9945 9.65543 35.8807 9.76758 35.8807 9.90593C35.8807 10.0443 35.9945 10.1564 36.1349 10.1564Z" fill="white"/>
<path d="M33.4924 8.74537C33.6328 8.74537 33.7466 8.63321 33.7466 8.49486C33.7466 8.35651 33.6328 8.24435 33.4924 8.24435C33.352 8.24435 33.2382 8.35651 33.2382 8.49486C33.2382 8.63321 33.352 8.74537 33.4924 8.74537Z" fill="white"/>
<path d="M28.9665 10.6642C29.1069 10.6642 29.2207 10.552 29.2207 10.4137C29.2207 10.2753 29.1069 10.1632 28.9665 10.1632C28.8261 10.1632 28.7123 10.2753 28.7123 10.4137C28.7123 10.552 28.8261 10.6642 28.9665 10.6642Z" fill="white"/>
<path d="M48.9258 51.7921C49.0662 51.7921 49.18 51.68 49.18 51.5416C49.18 51.4033 49.0662 51.2911 48.9258 51.2911C48.7854 51.2911 48.6716 51.4033 48.6716 51.5416C48.6716 51.68 48.7854 51.7921 48.9258 51.7921Z" fill="white"/>
<path d="M15.1626 45.6422C15.3035 45.6422 15.4176 45.5298 15.4176 45.391C15.4176 45.2522 15.3035 45.1398 15.1626 45.1398C15.0218 45.1398 14.9077 45.2522 14.9077 45.391C14.9077 45.5298 15.0218 45.6422 15.1626 45.6422Z" fill="white"/>
<path d="M32.8589 48.8763C32.9997 48.8763 33.1139 48.7638 33.1139 48.625C33.1139 48.4863 32.9997 48.3738 32.8589 48.3738C32.7181 48.3738 32.604 48.4863 32.604 48.625C32.604 48.7638 32.7181 48.8763 32.8589 48.8763Z" fill="white"/>
<path d="M20.4293 45.4415C20.5701 45.4415 20.6842 45.329 20.6842 45.1903C20.6842 45.0515 20.5701 44.939 20.4293 44.939C20.2885 44.939 20.1743 45.0515 20.1743 45.1903C20.1743 45.329 20.2885 45.4415 20.4293 45.4415Z" fill="white"/>
<path d="M22.6303 48.9826C22.7711 48.9826 22.8853 48.8701 22.8853 48.7313C22.8853 48.5926 22.7711 48.4801 22.6303 48.4801C22.4895 48.4801 22.3754 48.5926 22.3754 48.7313C22.3754 48.8701 22.4895 48.9826 22.6303 48.9826Z" fill="white"/>
<path d="M38.833 46.7515C38.9734 46.7515 39.0872 46.6393 39.0872 46.501C39.0872 46.3626 38.9734 46.2505 38.833 46.2505C38.6926 46.2505 38.5788 46.3626 38.5788 46.501C38.5788 46.6393 38.6926 46.7515 38.833 46.7515Z" fill="white"/>
<path d="M47.7657 41.783C47.906 41.783 48.0199 41.6708 48.0199 41.5325C48.0199 41.3941 47.906 41.282 47.7657 41.282C47.6253 41.282 47.5114 41.3941 47.5114 41.5325C47.5114 41.6708 47.6253 41.783 47.7657 41.783Z" fill="white"/>
<path d="M54.538 44.8326C54.6783 44.8326 54.7922 44.7205 54.7922 44.5821C54.7922 44.4438 54.6783 44.3316 54.538 44.3316C54.3976 44.3316 54.2838 44.4438 54.2838 44.5821C54.2838 44.7205 54.3976 44.8326 54.538 44.8326Z" fill="white"/>
<path d="M56.8462 46.2883C56.9866 46.2883 57.1004 46.1762 57.1004 46.0378C57.1004 45.8995 56.9866 45.7873 56.8462 45.7873C56.7058 45.7873 56.592 45.8995 56.592 46.0378C56.592 46.1762 56.7058 46.2883 56.8462 46.2883Z" fill="white"/>
<path d="M57.2256 42.3182C57.366 42.3182 57.4798 42.2061 57.4798 42.0677C57.4798 41.9294 57.366 41.8172 57.2256 41.8172C57.0852 41.8172 56.9714 41.9294 56.9714 42.0677C56.9714 42.2061 57.0852 42.3182 57.2256 42.3182Z" fill="white"/>
<path d="M23.552 36.6977C23.6924 36.6977 23.8062 36.5856 23.8062 36.4472C23.8062 36.3089 23.6924 36.1967 23.552 36.1967C23.4116 36.1967 23.2978 36.3089 23.2978 36.4472C23.2978 36.5856 23.4116 36.6977 23.552 36.6977Z" fill="white"/>
<path d="M23.6487 42.5357C23.8361 42.5357 23.9881 42.3861 23.9881 42.2014C23.9881 42.0168 23.8361 41.8671 23.6487 41.8671C23.4612 41.8671 23.3092 42.0168 23.3092 42.2014C23.3092 42.3861 23.4612 42.5357 23.6487 42.5357Z" fill="white"/>
<path d="M25.6853 46.7734C25.8728 46.7734 26.0247 46.6237 26.0247 46.4391C26.0247 46.2544 25.8728 46.1048 25.6853 46.1048C25.4978 46.1048 25.3459 46.2544 25.3459 46.4391C25.3459 46.6237 25.4978 46.7734 25.6853 46.7734Z" fill="white"/>
<path d="M50.08 42.3573C50.2674 42.3573 50.4194 42.2076 50.4194 42.023C50.4194 41.8383 50.2674 41.6886 50.08 41.6886C49.8925 41.6886 49.7405 41.8383 49.7405 42.023C49.7405 42.2076 49.8925 42.3573 50.08 42.3573Z" fill="white"/>
<path d="M58.8601 41.8666C59.0476 41.8666 59.1996 41.7169 59.1996 41.5323C59.1996 41.3476 59.0476 41.198 58.8601 41.198C58.6727 41.198 58.5207 41.3476 58.5207 41.5323C58.5207 41.7169 58.6727 41.8666 58.8601 41.8666Z" fill="white"/>
<path d="M54.5153 40.0377C54.7028 40.0377 54.8547 39.888 54.8547 39.7034C54.8547 39.5187 54.7028 39.3691 54.5153 39.3691C54.3278 39.3691 54.1758 39.5187 54.1758 39.7034C54.1758 39.888 54.3278 40.0377 54.5153 40.0377Z" fill="white"/>
<path d="M50.08 40.2162C50.2674 40.2162 50.4194 40.0665 50.4194 39.8818C50.4194 39.6972 50.2674 39.5475 50.08 39.5475C49.8925 39.5475 49.7405 39.6972 49.7405 39.8818C49.7405 40.0665 49.8925 40.2162 50.08 40.2162Z" fill="white"/>
<path d="M40.9308 5.74925L41.7749 5.66966L40.9323 5.6228C40.9059 5.46212 40.7754 5.33641 40.611 5.31559L40.5303 4.48694L40.482 5.32228C40.3296 5.35575 40.2127 5.48146 40.1938 5.63767L39.3309 5.71503L40.1999 5.76115C40.2316 5.90471 40.3492 6.01704 40.4971 6.04381L40.5755 6.89775L40.6215 6.0453C40.7777 6.01927 40.9014 5.901 40.9308 5.74925Z" fill="white"/>
<path d="M26.6848 15.0112L27.5289 14.9316L26.6863 14.8847C26.6607 14.7241 26.5294 14.5984 26.365 14.5775L26.2843 13.7489L26.2368 14.5842C26.0836 14.6177 25.9667 14.7434 25.9479 14.8996L25.0849 14.977L25.9539 15.0231C25.9856 15.1667 26.1033 15.279 26.2511 15.3058L26.3296 16.1597L26.3763 15.3072C26.5325 15.282 26.6562 15.1629 26.6848 15.0112Z" fill="white"/>
<path d="M58.2416 39.4991L59.0857 39.4195L58.2431 39.3726C58.2175 39.2119 58.0862 39.0862 57.9218 39.0654L57.8411 38.2368L57.7935 39.0721C57.6412 39.1056 57.5243 39.2313 57.5054 39.3875L56.6425 39.4649L57.5114 39.511C57.5431 39.6545 57.6608 39.7669 57.8086 39.7936L57.8871 40.6476L57.9338 39.7951C58.0885 39.7698 58.2122 39.6516 58.2416 39.4991Z" fill="white"/>
<path d="M23.8335 52.3029L24.6776 52.2233L23.835 52.1764C23.8086 52.0157 23.6781 51.89 23.5137 51.8692L23.4329 51.0413L23.3854 51.8759C23.2323 51.9094 23.1154 52.0351 23.0965 52.1913L22.2336 52.2687L23.1026 52.3148C23.1342 52.4583 23.2519 52.5714 23.3998 52.5974L23.4782 53.4514L23.525 52.5989C23.6804 52.5736 23.8048 52.4546 23.8335 52.3029Z" fill="white"/>
<path d="M55.5601 46.0579L56.4041 45.9783L55.5616 45.9314C55.5359 45.7707 55.4047 45.645 55.2402 45.6242L55.1595 44.7955L55.112 45.6301C54.9596 45.6636 54.8427 45.7893 54.8238 45.9455L53.9609 46.0229L54.8299 46.069C54.8616 46.2126 54.9792 46.3249 55.1271 46.3517L55.2055 47.2056L55.2523 46.3532C55.4069 46.3286 55.5314 46.2096 55.5601 46.0579Z" fill="white"/>
<path d="M41.5779 22.9201C38.0576 24.2688 34.6239 25.4724 31.7266 26.3661C25.8391 28.1831 9.73069 33.1017 0 39.3022L0.814662 39.6144C6.74359 36.3135 10.5974 35.2764 14.3018 34.1277C18.3299 32.8787 31.3517 29.8752 37.2482 28.2396C39.2403 27.6872 41.5734 26.9638 44.0446 26.0835C43.4698 25.2932 42.8633 24.5007 42.2252 23.7097C42.0117 23.4428 41.7952 23.1796 41.5779 22.9201ZM45.8791 28.763C45.0267 29.3302 44.3123 29.783 43.8122 30.0685C40.9157 31.7189 26.7941 41.2203 23.5815 43.406C20.3688 45.5918 11.452 53.8887 8.82702 56.2975L8.7365 57.2781C17.1999 49.7841 19.8551 47.9359 23.2194 45.4133C27.3832 42.2908 35.9968 36.5142 38.9243 34.663C41.7228 32.8936 44.2467 31.2662 46.5119 29.777C46.475 29.7161 46.438 29.6551 46.4011 29.5934C46.2306 29.3176 46.0563 29.041 45.8791 28.763ZM59.109 14.9912C54.9859 17.3732 48.4875 20.2482 42.1829 22.6874C42.3338 22.8696 42.4839 23.0532 42.6332 23.2383C43.3378 24.1126 44.0023 24.9929 44.6277 25.8739C49.5835 24.0747 55.0214 21.66 59.3361 18.7375C57.2806 20.6571 50.4849 25.6627 46.3415 28.4529C46.5549 28.7957 46.7616 29.1384 46.9615 29.4796C53.2389 25.3393 57.4631 22.2919 59.9244 20.2541C63.3189 17.4439 71.0582 11.1542 74 2.72346C68.8397 9.19226 62.7388 12.8939 59.109 14.9912Z" fill="#FC3D21"/>
<path d="M30.5016 37.4577C29.834 36.6294 28.9107 35.5202 28.2175 34.66C27.2905 33.5099 26.4328 32.3479 25.6468 31.1874C25.3903 31.2506 25.1346 31.3137 24.8789 31.3769C25.8278 32.8363 26.8816 34.2935 28.0297 35.718C28.8685 36.7588 29.6311 37.5967 30.0218 38.1178C30.101 38.2234 30.2579 38.4569 30.4699 38.7676C30.7143 38.6041 30.961 38.439 31.2099 38.2725C30.9693 38.0145 30.7316 37.7431 30.5016 37.4577ZM35.3745 41.8173C34.8261 41.3058 33.4962 40.4515 32.112 39.1698C31.8066 39.3765 31.498 39.5862 31.1888 39.7973C32.0826 41.0389 33.3001 42.5637 34.2536 43.0083C35.6898 43.6789 36.0767 42.473 35.3745 41.8173ZM42.6333 23.2383C34.719 13.4203 25.0509 8.02653 20.8825 11.291C17.645 13.8262 18.9741 21.2355 23.4367 29.0187C23.6675 28.9406 23.896 28.8641 24.1223 28.7882C19.6183 21.205 18.3857 14.1578 21.4392 11.7661C25.2764 8.76106 34.5417 14.1756 42.2267 23.709C43.8175 25.6821 45.216 27.6626 46.4003 29.5934C50.9353 36.9908 52.327 43.6804 49.1936 46.4111C48.2348 47.2467 45.3051 47.5746 41.4671 45.8721C41.4135 45.9382 41.4995 46.1174 41.5667 46.1613C44.8796 47.4742 48.053 47.9746 49.6552 46.7203C53.5052 43.7049 50.5476 33.0564 42.6333 23.2383Z" fill="white"/>
<path d="M8.69055 24.4033H13.7596L18.0139 31.5182C18.0139 31.5182 18.0139 26.3661 18.0139 25.9646C18.0139 25.3401 17.2106 24.526 16.9277 24.4033C17.2671 24.4033 20.2316 24.4033 20.4353 24.4033C20.2203 24.4591 19.5301 25.2843 19.5301 25.9646C19.5301 26.2991 19.5301 33.7709 19.5301 34.1277C19.5301 34.6295 20.2655 35.321 20.6163 35.5886H15.7283L11.4061 28.4403C11.4061 28.4403 11.4061 33.7709 11.4061 34.0608C11.4061 34.6184 11.9605 35.1537 12.5376 35.6109H8.8037C9.33549 35.3879 9.84466 34.6853 9.88992 34.1277C9.93517 33.5701 9.88992 26.3772 9.88992 26.065C9.88992 25.3847 9.22235 24.8271 8.69055 24.4033Z" fill="white"/>
<path d="M55.0584 35.5886H61.802C61.4286 35.4994 61.0099 35.0645 60.7836 34.4846C60.5573 33.9047 56.9819 24.4033 56.9819 24.4033H54.418C53.6908 24.9193 52.9116 25.4635 52.0796 26.0367C52.0773 26.0575 52.075 26.0783 52.0713 26.0984C51.9596 26.7675 49.9532 33.93 49.831 34.2838C49.6612 34.7745 48.79 35.321 48.4392 35.6109H52.0713C51.7092 35.2094 51.415 34.8191 51.4829 34.3731C51.5508 33.927 51.7545 33.0348 51.7545 33.0348H55.511C55.6807 33.4809 55.8074 33.8816 55.873 34.2615C55.9522 34.7188 55.477 35.2317 55.0584 35.5886ZM52.0939 31.6074L53.3612 27.5258L55.0357 31.6074H52.0939ZM51.5229 24.8107C51.7092 24.6754 51.8963 24.5394 52.0826 24.4033H51.0982C51.1963 24.4926 51.3584 24.6331 51.5229 24.8107Z" fill="white"/>
<path d="M25.7304 34.3731C25.7983 33.927 26.002 33.0348 26.002 33.0348H29.7585C29.9282 33.4809 30.0549 33.8816 30.1206 34.2615C30.1998 34.7188 29.7245 35.2317 29.3059 35.5886H35.2431C35.3668 35.5068 35.4898 35.425 35.6127 35.344C35.3827 35.1433 35.1707 34.8422 35.0312 34.4846C34.8049 33.9047 31.2294 24.4033 31.2294 24.4033H25.3457C25.6286 24.6598 26.4433 25.3512 26.3188 26.0984C26.2079 26.7675 24.2007 33.93 24.0785 34.2838C23.9088 34.7745 23.0375 35.321 22.6868 35.6109H26.3188C25.9567 35.2094 25.6625 34.8191 25.7304 34.3731ZM27.6087 27.5258L29.2833 31.6074H26.3414L27.6087 27.5258Z" fill="white"/>
<path d="M46.2397 29.9554C45.1323 30.6825 43.9639 31.4416 42.7328 32.2341C43.285 32.498 43.7248 32.8296 43.767 33.2579C43.8455 34.0623 42.2056 34.4511 40.7233 34.2838C40.4269 34.2504 40.1357 34.1738 39.8581 34.0712C39.5504 34.2667 39.2396 34.4637 38.9243 34.663C38.6037 34.8659 38.2145 35.1157 37.7702 35.4042V36.5588C38.0644 35.9901 38.7078 35.4808 39.2072 35.4548C39.4221 35.4436 40.1689 36.1239 43.2465 35.9566C44.7401 35.8756 47.6253 34.3061 47.5801 32.4995C47.5529 31.4319 46.9872 30.5993 46.2397 29.9554ZM37.7694 32.7449V33.921C38.0417 33.7418 38.3103 33.5656 38.5735 33.3939C38.1594 33.1099 37.866 32.8445 37.7694 32.7449ZM45.1874 29.2172C44.9007 29.0499 44.6103 28.9034 44.332 28.7741C42.8837 28.105 41.3675 27.9823 41.0507 27.079C40.8274 26.4419 41.458 25.8523 42.9969 25.8746C44.5357 25.8969 45.9613 26.8002 46.346 27.1236V24.2464C46.2329 24.358 45.7365 24.9193 45.2824 24.8263C44.4112 24.6479 42.929 24.4152 41.2318 24.4249C39.2856 24.436 37.611 25.9185 37.5545 27.7927C37.4753 30.4134 39.6024 31.1271 40.8018 31.5397C40.9255 31.5821 41.0666 31.6275 41.2197 31.6758C42.37 30.9383 43.2797 30.3703 43.8123 30.0677C44.1698 29.8647 44.6382 29.5733 45.1874 29.2172Z" fill="white"/>
</svg>
